<?xml version="1.0" standalone="no"?>
<!DOCTYPE svg PUBLIC "-//W3C//DTD SVG 20010904//EN"
 "http://www.w3.org/TR/2001/REC-SVG-20010904/DTD/svg10.dtd">
<svg version="1.0" xmlns="http://www.w3.org/2000/svg"
 width="645.000000pt" height="645.000000pt" viewBox="0 0 645.000000 645.000000"
 preserveAspectRatio="xMidYMid meet">
<metadata>
Created by potrace 1.11, written by Peter Selinger 2001-2013
</metadata>
<g transform="translate(0.000000,645.000000) scale(0.100000,-0.100000)"
fill="#000000" stroke="none">
<path d="M2941 5871 c-8 -5 -26 -8 -42 -7 -24 2 -26 0 -16 -13 10 -12 9 -14
-5 -8 -10 3 -18 2 -18 -3 0 -8 -9 -10 -72 -10 -16 0 -28 -5 -28 -11 0 -8 -6
-7 -17 2 -15 13 -15 12 -4 -9 12 -22 11 -23 -9 -12 -13 7 -20 8 -16 2 3 -5 -5
-12 -19 -14 -13 -3 -26 0 -29 6 -2 6 -5 3 -5 -6 -1 -11 -6 -15 -16 -12 -8 4
-15 1 -15 -6 0 -10 -3 -10 -15 0 -13 11 -19 9 -38 -7 -12 -11 -28 -18 -36 -15
-10 3 -11 0 -5 -9 7 -12 5 -12 -9 0 -15 12 -17 11 -17 -3 0 -10 -4 -14 -10
-11 -5 3 -10 -2 -10 -12 0 -15 -2 -16 -10 -3 -8 13 -10 13 -10 -2 0 -11 -6
-16 -20 -13 -11 2 -22 0 -25 -4 -2 -5 -21 -12 -40 -15 -19 -4 -34 -12 -32 -19
1 -7 -6 -12 -16 -12 -9 0 -27 -12 -40 -26 -12 -14 -28 -24 -36 -21 -8 3 -11 0
-7 -7 4 -6 0 -11 -11 -11 -14 0 -15 -2 -4 -9 11 -7 9 -10 -10 -13 -13 -2 -23
-8 -22 -14 1 -6 -4 -11 -11 -11 -22 0 -76 -25 -76 -35 0 -5 6 -6 13 -2 8 5 7
2 -2 -9 -11 -14 -16 -15 -29 -5 -13 11 -14 10 -4 -8 9 -18 8 -20 -11 -20 -16
1 -21 -4 -19 -18 3 -17 2 -18 -12 -7 -9 8 -19 11 -23 7 -3 -3 -1 -6 5 -6 7 0
12 -7 12 -16 0 -11 -5 -14 -16 -10 -10 4 -14 1 -11 -6 2 -7 -9 -18 -25 -25
-15 -7 -28 -19 -28 -28 0 -9 -8 -24 -18 -33 -10 -10 -13 -13 -6 -9 7 4 15 3
19 -3 4 -6 3 -10 -2 -9 -14 4 -61 -19 -69 -33 -6 -10 -4 -10 9 1 15 12 17 12
11 -3 -3 -9 -12 -16 -19 -16 -8 0 -17 -5 -21 -12 -5 -7 -3 -8 7 -3 12 8 12 6
0 -8 -7 -9 -17 -15 -21 -12 -5 3 -12 0 -16 -6 -4 -7 -3 -9 4 -5 6 3 13 2 17
-4 3 -5 -1 -10 -10 -10 -11 0 -15 -5 -11 -16 4 -9 2 -13 -5 -8 -8 5 -10 -3 -7
-24 2 -17 1 -29 -2 -27 -4 3 -16 -5 -26 -18 -14 -16 -14 -18 -2 -9 12 10 18
10 24 1 4 -8 3 -9 -5 -5 -6 4 -14 1 -17 -8 -3 -9 -12 -12 -21 -9 -12 5 -14 3
-8 -7 6 -9 4 -12 -6 -8 -10 4 -15 -4 -17 -30 -1 -19 -8 -42 -15 -51 -9 -12 -9
-13 1 -7 20 12 13 -5 -10 -25 -20 -16 -21 -20 -8 -29 13 -8 13 -10 -2 -10 -9
0 -20 -5 -24 -12 -4 -7 -3 -8 4 -4 7 4 12 3 12 -3 0 -5 -4 -11 -9 -13 -5 -1
-11 -29 -13 -60 -2 -40 -7 -58 -16 -58 -7 0 -10 -4 -7 -10 3 -6 1 -10 -4 -10
-6 0 -11 -21 -11 -50 0 -30 -4 -50 -11 -50 -7 0 -9 -9 -6 -21 4 -15 3 -18 -7
-9 -10 8 -13 5 -13 -12 -1 -13 -1 -208 -2 -434 -1 -403 -1 -412 -21 -417 -11
-3 -23 -1 -26 4 -3 5 -13 5 -24 -1 -13 -7 -21 -7 -25 0 -4 7 -11 7 -18 2 -7
-5 -20 -8 -29 -7 -11 2 -18 -3 -18 -13 0 -15 -2 -15 -10 -2 -8 13 -10 12 -10
-3 0 -11 -9 -21 -19 -24 -12 -3 -17 -11 -14 -19 4 -10 0 -12 -11 -8 -11 4 -16
1 -16 -10 0 -9 -4 -16 -10 -16 -5 0 -10 -6 -10 -14 0 -8 -5 -18 -12 -22 -6 -4
-8 -3 -5 3 3 5 0 10 -8 10 -11 0 -12 -5 -3 -21 10 -19 9 -19 -4 -8 -19 15 -31
2 -22 -22 3 -9 2 -16 -2 -16 -18 0 -3 -133 17 -158 10 -14 16 -28 13 -33 -3
-5 1 -9 8 -9 9 0 9 -3 -2 -10 -13 -8 -12 -10 4 -10 13 0 17 -5 13 -19 -3 -12
0 -18 7 -15 8 3 12 -18 14 -68 2 -50 7 -75 17 -81 8 -4 12 -14 9 -22 -4 -9 0
-15 7 -15 11 0 13 -16 11 -71 -3 -57 -1 -70 10 -63 10 6 10 4 -1 -9 -9 -11
-10 -17 -2 -17 6 0 11 -9 11 -20 0 -11 5 -20 10 -20 6 0 10 -5 10 -11 0 -5 -6
-7 -13 -4 -6 4 -2 -2 11 -13 12 -11 22 -30 22 -43 0 -12 8 -28 18 -35 9 -7 18
-17 18 -23 1 -6 2 -16 3 -22 0 -5 5 -8 10 -4 6 3 8 -3 6 -14 -3 -14 1 -18 11
-14 8 3 14 2 13 -3 -1 -5 -1 -16 0 -24 1 -13 2 -13 11 0 8 12 10 10 10 -10 0
-20 2 -22 10 -10 8 12 10 10 10 -10 0 -20 2 -22 10 -10 8 12 10 10 10 -10 0
-20 2 -22 10 -10 8 13 10 12 10 -3 0 -12 4 -16 13 -11 9 6 9 4 -1 -8 -12 -14
-10 -16 10 -11 18 4 20 3 8 -6 -13 -9 -12 -11 6 -11 30 0 53 -28 33 -41 -10
-7 -6 -8 14 -3 18 4 27 2 27 -6 0 -9 3 -10 13 -1 23 18 37 -8 37 -69 0 -43 4
-58 19 -67 17 -11 19 -26 20 -139 2 -106 5 -129 19 -143 10 -9 13 -13 8 -8
-20 15 -28 6 -9 -10 19 -17 22 -27 24 -85 0 -14 7 -29 15 -32 7 -3 11 -12 8
-21 -3 -8 -1 -15 5 -15 6 0 11 -7 11 -15 0 -8 6 -15 13 -15 8 0 7 -4 -3 -10
-11 -7 -11 -10 -2 -10 7 0 11 -4 7 -9 -3 -5 0 -13 6 -17 8 -4 9 -3 5 4 -4 7
-2 12 3 12 6 0 11 -8 11 -18 0 -10 9 -24 20 -32 14 -10 16 -16 7 -22 -8 -5 -7
-8 5 -8 9 0 20 -5 24 -12 5 -7 2 -9 -7 -4 -8 4 -4 -1 8 -12 13 -11 23 -28 23
-37 0 -9 14 -24 32 -33 17 -9 45 -30 62 -46 30 -28 30 -28 6 -22 -19 6 -21 5
-10 -3 8 -6 23 -11 33 -11 9 0 17 -4 17 -10 0 -5 10 -10 23 -10 17 0 19 -2 8
-9 -11 -7 -9 -10 10 -13 17 -2 23 -8 21 -22 -2 -11 1 -15 7 -11 6 3 11 0 11
-8 0 -16 46 -58 54 -50 3 4 6 -1 6 -10 0 -10 7 -17 16 -17 8 0 12 -4 9 -10 -3
-5 0 -10 7 -10 9 0 9 -3 -2 -10 -13 -8 -12 -10 3 -10 12 0 16 -4 11 -12 -6
-10 -4 -10 8 0 14 12 16 10 11 -10 -4 -18 -3 -20 6 -8 9 12 11 10 11 -10 0
-20 2 -22 10 -10 8 12 10 10 10 -10 0 -20 2 -22 10 -10 8 13 10 12 10 -2 0
-10 6 -17 13 -15 6 1 11 -6 9 -16 -2 -9 2 -17 8 -17 5 0 10 -7 10 -15 0 -8 6
-15 13 -15 9 0 9 -2 -1 -9 -11 -6 -10 -10 3 -15 11 -4 15 -12 11 -22 -6 -15
-4 -15 11 -3 14 12 16 12 8 0 -6 -11 -4 -13 8 -8 12 4 14 2 10 -10 -5 -12 -2
-15 10 -10 19 7 33 -8 16 -19 -8 -5 -9 -3 -4 6 6 9 4 11 -5 5 -9 -6 -4 -15 18
-36 17 -16 37 -29 44 -29 17 -1 49 -25 42 -32 -2 -3 2 -8 11 -12 9 -3 13 -2
10 3 -3 5 0 13 6 17 8 4 9 3 5 -4 -4 -7 -2 -12 5 -12 7 0 10 -3 6 -6 -9 -9 19
-34 37 -34 8 0 18 -5 21 -10 4 -7 11 -8 18 -1 14 11 40 -12 29 -25 -4 -5 2 -2
12 6 13 10 17 10 12 2 -8 -13 -7 -13 42 -17 18 -1 42 -11 54 -21 22 -19 22
-19 8 0 -14 18 -14 19 9 7 12 -7 32 -11 42 -8 10 3 21 2 24 -3 3 -4 21 -4 40
0 19 4 35 5 35 1 0 -5 20 -5 45 -1 25 4 48 3 51 -2 3 -4 14 -4 24 2 13 7 21 7
25 0 5 -8 11 -8 19 -1 7 6 16 8 20 4 10 -10 36 -13 36 -4 0 9 31 8 47 -2 6 -4
25 -2 42 4 17 6 38 9 45 6 8 -3 20 1 26 8 7 8 17 12 22 9 5 -3 16 2 23 12 13
17 16 17 25 4 8 -13 10 -13 10 1 0 9 7 16 15 17 8 1 22 3 30 4 8 1 15 6 15 11
0 5 7 3 17 -4 15 -13 15 -12 3 11 -12 23 -12 24 3 11 12 -9 17 -10 17 -2 0 7
5 9 10 6 6 -3 10 -2 10 4 0 6 7 7 17 4 12 -5 14 -3 8 7 -6 10 -4 12 7 7 19 -7
38 11 38 34 0 10 5 21 12 25 7 4 8 3 4 -4 -4 -7 -1 -12 9 -12 12 0 14 4 6 19
-9 16 -8 18 12 14 18 -4 19 -3 7 7 -13 10 -12 11 6 7 17 -4 20 -1 17 14 -3 11
0 19 6 19 7 0 9 -5 5 -12 -4 -7 -3 -8 5 -4 9 6 9 11 -1 24 -12 14 -10 14 10 3
22 -12 23 -11 13 7 -9 18 -8 19 12 15 18 -4 19 -3 7 6 -13 9 -12 11 4 11 12 0
16 5 12 16 -3 8 -2 13 3 10 4 -3 17 4 27 17 19 21 19 21 0 7 -18 -13 -19 -13
-11 0 16 29 49 60 64 61 11 0 12 2 4 6 -7 2 -13 9 -13 15 0 6 7 8 15 5 8 -4
17 -1 21 5 5 7 2 9 -7 4 -8 -4 -4 1 9 10 12 9 22 22 22 30 0 7 5 16 12 20 6 4
8 3 5 -3 -3 -5 0 -10 8 -10 11 0 12 5 3 20 -7 13 -7 17 0 13 6 -3 14 -1 17 5
4 5 13 8 21 5 7 -3 11 0 8 7 -2 7 6 17 18 22 13 6 22 18 22 27 -1 10 3 15 8
12 5 -3 12 4 15 16 4 16 8 18 14 8 7 -10 9 -8 9 6 0 11 5 16 13 13 8 -3 14 1
14 8 0 7 -7 11 -16 8 -9 -3 -1 4 17 16 18 12 37 19 42 16 6 -3 8 0 5 7 -3 7 5
18 17 23 13 6 22 18 22 27 -1 10 3 15 8 12 5 -3 12 4 15 16 4 16 8 18 14 8 7
-10 9 -8 9 6 0 12 5 16 15 12 8 -3 14 0 12 7 -1 7 4 11 11 9 10 -2 10 2 2 18
-9 16 -8 18 5 14 9 -4 15 -3 14 2 -5 26 2 45 14 38 9 -6 9 -4 -1 8 -10 13 -10
18 -1 24 8 4 9 3 5 -4 -4 -7 -2 -12 3 -12 6 0 11 9 11 20 0 12 7 20 18 20 13
0 14 2 3 9 -11 7 -10 12 7 27 12 10 19 21 16 26 -3 4 -1 8 5 8 5 0 8 8 6 18
-1 9 2 23 7 29 6 7 8 26 6 43 -3 16 -2 28 0 25 3 -3 13 2 23 11 15 14 17 37
19 184 1 169 9 212 43 237 14 10 38 10 54 0 7 -5 9 -1 6 13 -3 12 0 20 6 20 7
0 9 -6 5 -12 -3 -7 5 -1 18 15 14 15 30 27 35 27 6 0 16 7 23 15 7 8 16 12 21
9 5 -3 9 3 9 13 0 15 2 16 10 3 8 -12 10 -11 10 6 0 11 11 31 25 44 25 24 35
47 13 34 -7 -4 -8 -3 -4 5 4 6 12 8 18 5 7 -5 9 0 5 15 -4 18 -3 20 8 11 11
-9 13 -6 11 15 -3 19 0 23 10 15 9 -9 12 -5 10 14 -2 14 2 24 8 23 6 -1 10 4
9 11 -2 6 0 12 5 12 4 0 7 16 6 35 -1 23 2 33 9 28 7 -4 8 0 4 11 -5 14 -3 17
8 12 16 -6 16 14 0 26 -6 5 -3 8 7 8 11 0 16 6 13 20 -2 11 0 20 6 20 5 0 9
36 9 80 0 52 4 80 11 80 6 0 8 7 5 16 -4 12 -2 15 9 10 8 -3 15 -1 15 3 0 5
-6 12 -12 14 -10 4 -10 6 0 6 6 1 12 12 12 26 0 14 6 25 13 25 8 0 7 4 -3 10
-10 6 -11 10 -2 10 6 0 12 7 12 16 0 8 4 13 9 9 6 -3 8 4 6 15 -2 11 -1 20 3
20 12 0 4 244 -7 248 -6 2 -11 15 -11 28 0 13 -5 24 -11 24 -5 0 -7 -5 -3 -12
4 -7 3 -8 -5 -4 -6 4 -9 12 -5 17 3 6 -3 13 -15 16 -19 5 -38 37 -33 56 1 4
-6 3 -17 -2 -14 -8 -23 -6 -36 9 -13 15 -22 17 -31 9 -8 -7 -14 -7 -19 1 -3 6
-12 7 -18 3 -18 -11 -36 -12 -43 -2 -3 5 -10 7 -15 4 -5 -4 -9 148 -9 389 0
257 -4 396 -10 396 -5 0 -10 5 -10 11 0 5 6 7 13 4 6 -4 2 2 -10 13 -20 18
-23 30 -23 96 0 54 -4 76 -12 76 -10 0 -10 2 0 9 10 6 9 10 -7 14 -17 4 -21
13 -21 51 0 25 0 49 1 52 0 4 -3 10 -8 13 -14 10 -35 53 -29 59 3 3 6 -1 6 -8
0 -7 3 -10 7 -6 4 4 -3 16 -17 28 -14 11 -19 17 -12 13 6 -3 12 -1 12 4 0 6
-4 11 -10 11 -5 0 -10 9 -10 21 0 13 -4 18 -12 13 -10 -6 -10 -5 0 8 10 13 7
19 -16 39 -36 30 -57 62 -26 40 10 -8 7 -3 -8 12 -17 17 -25 34 -23 48 3 16 0
19 -12 15 -10 -4 -14 -2 -10 8 3 8 -2 17 -11 21 -14 5 -14 7 -2 15 12 8 12 10
-3 16 -9 3 -17 14 -17 24 0 11 -5 22 -12 26 -7 4 -8 3 -4 -4 5 -8 2 -10 -8 -6
-9 3 -13 11 -9 17 4 6 0 8 -9 5 -11 -5 -14 0 -12 18 2 22 0 23 -14 12 -14 -11
-15 -10 -9 5 4 10 3 16 -1 13 -11 -6 -42 30 -34 39 4 3 -2 3 -13 -1 -18 -7
-18 -6 -7 9 12 14 11 16 -8 12 -17 -3 -20 -1 -11 9 9 11 8 14 -6 12 -10 0 -18
5 -18 12 0 7 -5 16 -11 20 -6 4 -14 14 -17 22 -4 12 -6 12 -6 -2 -1 -9 7 -22
17 -28 11 -8 12 -10 2 -7 -8 2 -20 13 -26 25 -6 12 -14 19 -17 15 -4 -3 -7 5
-7 18 0 19 -2 21 -10 9 -8 -13 -10 -12 -10 3 0 11 -5 15 -11 11 -8 -4 -9 1 -4
17 7 24 7 24 -9 4 -13 -16 -15 -17 -10 -2 4 11 1 17 -10 17 -9 0 -16 5 -16 11
0 6 -7 8 -15 5 -9 -3 -18 1 -21 9 -4 8 -9 13 -14 10 -4 -2 -6 7 -4 21 2 21 0
23 -12 13 -11 -9 -14 -9 -14 0 0 7 -5 9 -12 5 -6 -4 -8 -3 -5 2 3 6 2 16 -4
24 -7 12 -9 12 -9 1 0 -10 -3 -11 -13 -2 -8 6 -17 8 -21 4 -4 -4 -9 3 -13 16
-4 17 -8 19 -14 9 -7 -10 -9 -9 -9 4 0 11 -6 16 -20 13 -11 -2 -20 0 -20 6 0
5 -5 9 -11 9 -5 0 -7 -6 -4 -12 4 -7 -2 -3 -13 9 -15 17 -22 19 -31 10 -10 -9
-12 -9 -9 3 2 9 -6 16 -22 18 -14 2 -29 8 -35 14 -7 8 -6 9 3 4 6 -4 12 -2 12
3 0 15 -13 14 -29 -1 -8 -8 -11 -8 -8 -2 4 7 -1 18 -10 25 -12 10 -14 10 -9 2
4 -7 2 -13 -3 -13 -6 0 -11 4 -11 8 0 4 -12 9 -27 10 -15 1 -30 7 -34 14 -4 6
-14 8 -22 5 -9 -3 -18 1 -21 10 -4 9 -14 13 -26 10 -13 -3 -18 -1 -13 6 4 6 0
8 -9 5 -8 -4 -21 -2 -28 2 -7 5 -25 4 -38 -1 -21 -8 -23 -7 -13 5 10 12 9 14
-7 9 -12 -3 -22 1 -25 10 -4 10 -13 13 -28 10 -14 -4 -20 -2 -16 4 7 11 -34
10 -52 -1 -5 -4 -13 -1 -17 5 -4 8 -9 7 -15 -2 -7 -11 -9 -11 -9 -1 0 10 -5
10 -20 2 -11 -6 -20 -7 -20 -3 0 4 -20 8 -45 8 -25 0 -45 -4 -45 -9 0 -5 -6
-3 -14 3 -8 7 -16 8 -19 4 -3 -4 -50 -6 -106 -3 -56 3 -101 1 -101 -4 0 -5 -6
-4 -13 2 -7 6 -18 7 -26 3z m1654 -851 c3 -6 -1 -7 -9 -4 -18 7 -21 14 -7 14
6 0 13 -4 16 -10z m-75 -2894 c0 -3 -4 -8 -10 -11 -5 -3 -10 -1 -10 4 0 6 5
11 10 11 6 0 10 -2 10 -4z m-165 -336 c-3 -5 -12 -10 -18 -10 -7 0 -6 4 3 10
19 12 23 12 15 0z m-2273 -80 c6 0 9 -3 6 -6 -9 -8 -48 14 -48 27 0 6 7 3 16
-5 8 -9 20 -16 26 -16z m2198 -4 c0 -3 -4 -8 -10 -11 -5 -3 -10 -1 -10 4 0 6
5 11 10 11 6 0 10 -2 10 -4z m-160 -160 c0 -3 -4 -8 -10 -11 -5 -3 -10 -1 -10
4 0 6 5 11 10 11 6 0 10 -2 10 -4z m-1818 -36 c6 0 9 -3 6 -6 -9 -8 -48 14
-48 27 0 6 7 3 16 -5 8 -9 20 -16 26 -16z m304 -371 c3 -6 -5 -3 -20 6 -14 10
-26 19 -26 22 0 7 39 -17 46 -28z m1105 -42 c-10 -9 -11 -8 -5 6 3 10 9 15 12
12 3 -3 0 -11 -7 -18z"/>
<path d="M2546 5758 c3 -5 10 -6 15 -3 13 9 11 12 -6 12 -8 0 -12 -4 -9 -9z"/>
<path d="M4895 3720 c3 -5 8 -10 11 -10 2 0 4 5 4 10 0 6 -5 10 -11 10 -5 0
-7 -4 -4 -10z"/>
<path d="M1478 2783 c6 -2 9 -10 6 -15 -4 -7 -2 -8 5 -4 13 9 5 26 -12 25 -9
0 -8 -2 1 -6z"/>
<path d="M4785 2661 c-3 -5 0 -13 6 -17 7 -4 9 -3 5 4 -3 5 0 13 6 15 9 4 10
6 1 6 -6 1 -14 -3 -18 -8z"/>
<path d="M1670 2566 c0 -2 7 -7 16 -10 8 -3 12 -2 9 4 -6 10 -25 14 -25 6z"/>
<path d="M4575 2519 c-4 -6 -5 -12 -2 -15 2 -3 7 2 10 11 7 17 1 20 -8 4z"/>
<path d="M1798 2383 c6 -2 9 -10 6 -15 -4 -7 -2 -8 5 -4 13 9 5 26 -12 25 -9
0 -8 -2 1 -6z"/>
<path d="M2071 1676 c2 -2 15 -9 29 -15 24 -11 24 -11 6 3 -16 13 -49 24 -35
12z"/>
<path d="M4215 1639 c-4 -6 -5 -12 -2 -15 2 -3 7 2 10 11 7 17 1 20 -8 4z"/>
<path d="M3931 1346 c-8 -10 -9 -16 -1 -21 5 -3 10 -5 11 -3 4 18 7 38 4 38
-1 0 -8 -6 -14 -14z"/>
</g>
</svg>
